<?xml version="1.0" encoding="UTF-8"?>
<svg version="1.1" xmlns="http://www.w3.org/2000/svg" width="677" height="369">
<path d="M0 0 C10.23387046 8.85243891 17.86881976 20.00510821 22.8359375 32.578125 C23.0234375 35.4921875 23.0234375 35.4921875 22.8359375 37.578125 C19.6947213 36.12888207 17.09707855 34.34108269 14.3359375 32.265625 C4.22418654 25.11740636 -7.67364941 20.44949724 -20.14453125 21.984375 C-32.42347492 24.39886328 -43.9709765 29.58092486 -51.6640625 39.765625 C-56.67181746 47.53669535 -60.70399888 55.95206534 -64.91748047 64.17041016 C-66.91534432 68.02919068 -69.01790708 71.82574335 -71.140625 75.6171875 C-72.29134008 77.69562385 -72.29134008 77.69562385 -73.1640625 80.578125 C-69.0574538 79.46191262 -64.95424844 78.33366284 -60.8515625 77.203125 C-59.68431641 76.88601562 -58.51707031 76.56890625 -57.31445312 76.2421875 C-56.19619141 75.9328125 -55.07792969 75.6234375 -53.92578125 75.3046875 C-52.378302 74.88050537 -52.378302 74.88050537 -50.79956055 74.44775391 C-47.97826142 73.64639875 -47.97826142 73.64639875 -45.1640625 71.578125 C-45.56238281 70.88847656 -45.96070313 70.19882813 -46.37109375 69.48828125 C-48.029425 66.54686159 -49.61054443 63.57614232 -51.1640625 60.578125 C-51.58558594 59.79179687 -52.00710938 59.00546875 -52.44140625 58.1953125 C-53.49644077 55.83101827 -54.09738393 54.17414413 -54.1640625 51.578125 C-52.622634 47.88284859 -50.57665334 44.76168151 -48.1640625 41.578125 C-46.28125 41.87109375 -46.28125 41.87109375 -44.1640625 42.578125 C-42.66268664 45.23055569 -41.41457114 47.80914157 -40.1640625 50.578125 C-39.08815557 52.74848899 -38.00455748 54.91505398 -36.9140625 57.078125 C-35.99739583 58.91145833 -35.08072917 60.74479167 -34.1640625 62.578125 C-31.14676879 61.8885882 -31.14676879 61.8885882 -29.8984375 59.890625 C-28.33113335 56.20870415 -27.52206541 53.36989941 -28.91845703 49.47265625 C-31.06926372 44.87635764 -33.61523036 40.5158412 -36.2902832 36.20703125 C-37.1640625 34.578125 -37.1640625 34.578125 -37.1640625 32.578125 C-35.94185513 31.89878393 -34.71087799 31.23520977 -33.4765625 30.578125 C-32.79207031 30.206875 -32.10757813 29.835625 -31.40234375 29.453125 C-28.84874546 28.4548597 -26.88226979 28.42579114 -24.1640625 28.578125 C-23.6071875 29.63128906 -23.0503125 30.68445313 -22.4765625 31.76953125 C-18.65114848 39.00159845 -14.82325138 46.23234583 -10.9765625 53.453125 C-10.64736816 54.07106934 -10.31817383 54.68901367 -9.97900391 55.32568359 C-8.02465965 58.98677617 -6.04123326 62.63051498 -4.0390625 66.265625 C-2.01653311 69.95633227 -0.09486169 73.68201978 1.7734375 77.453125 C5.58347985 85.1426636 9.67017699 92.6815919 13.8359375 100.18359375 C14.16021729 100.77277588 14.48449707 101.36195801 14.81860352 101.96899414 C15.72473777 103.61467851 16.63757229 105.25666842 17.55078125 106.8984375 C18.8359375 109.578125 18.8359375 109.578125 18.8359375 112.578125 C13.10703008 112.80116579 7.38066352 112.96416376 1.6484375 113.07250977 C-0.2996015 113.11768122 -2.24733681 113.1790365 -4.19433594 113.25708008 C-20.32299723 113.88723462 -20.32299723 113.88723462 -24.65161133 110.80932617 C-26.24806759 108.4474214 -27.20830796 106.25746232 -28.1640625 103.578125 C-28.93085535 102.2246531 -29.72024872 100.88365343 -30.53515625 99.55859375 C-31.22866522 98.29684652 -31.91755519 97.03254834 -32.6015625 95.765625 C-32.96443359 95.12431641 -33.32730469 94.48300781 -33.70117188 93.82226562 C-36.17342693 89.25119365 -36.17342693 89.25119365 -36.1328125 86.33203125 C-34.8544791 84.01762924 -33.37139708 82.86402825 -31.2265625 81.328125 C-30.16115234 80.54695313 -30.16115234 80.54695313 -29.07421875 79.75 C-27.1640625 78.578125 -27.1640625 78.578125 -25.1640625 78.578125 C-23.49073092 81.69960045 -21.82654534 84.82585998 -20.1640625 87.953125 C-19.44863281 89.28730469 -19.44863281 89.28730469 -18.71875 90.6484375 C-18.26757812 91.49921875 -17.81640625 92.35 -17.3515625 93.2265625 C-16.93261719 94.01208496 -16.51367188 94.79760742 -16.08203125 95.60693359 C-15.1640625 97.578125 -15.1640625 97.578125 -15.1640625 99.578125 C-9.2240625 99.083125 -9.2240625 99.083125 -3.1640625 98.578125 C-11.05386296 83.51909834 -11.05386296 83.51909834 -19.1640625 68.578125 C-21.49931032 70.83553123 -23.35111323 72.8587011 -25.1640625 75.578125 C-25.8240625 75.578125 -26.4840625 75.578125 -27.1640625 75.578125 C-27.1640625 76.238125 -27.1640625 76.898125 -27.1640625 77.578125 C-36.79111189 85.12564842 -47.39472581 88.12599838 -59.0246582 91.14160156 C-70.52958725 94.16737066 -79.98931714 97.82730564 -86.2890625 108.578125 C-87.97227414 110.96574638 -89.10688054 112.355575 -92.02197266 112.96923828 C-96.76603004 113.35959276 -101.4357271 113.03790311 -106.1640625 112.578125 C-106.1640625 111.258125 -106.1640625 109.938125 -106.1640625 108.578125 C-105.5040625 108.578125 -104.8440625 108.578125 -104.1640625 108.578125 C-104.04417969 107.98 -103.92429687 107.381875 -103.80078125 106.765625 C-102.9845365 103.96134855 -101.3271027 102.05050539 -99.60546875 99.73046875 C-97.3296986 96.33223202 -95.6654826 92.65885826 -93.8828125 88.984375 C-92.01788252 85.28842286 -89.98365566 81.72397517 -87.9140625 78.140625 C-84.28709816 71.82109021 -81.0730666 65.3600643 -77.9765625 58.765625 C-67.69082489 36.91695049 -57.10397654 20.2938533 -34.1640625 10.578125 C-27.71358514 8.40787093 -20.91652906 8.05773945 -14.1640625 7.578125 C-28.80111186 -0.15292613 -44.46685099 -4.50038805 -60.9765625 -0.234375 C-62.71815995 0.33296356 -64.44774765 0.93836093 -66.1640625 1.578125 C-67.14890625 1.93003906 -68.13375 2.28195313 -69.1484375 2.64453125 C-78.11205695 6.09120218 -86.53677236 10.57005827 -92.1640625 18.578125 C-93.49328698 19.91555457 -94.82700653 21.24852473 -96.1640625 22.578125 C-102.39599476 29.40357462 -106.19430107 37.18158453 -110.13916016 45.43457031 C-118.90837832 63.77514571 -118.90837832 63.77514571 -123.83984375 70.5859375 C-125.27537223 72.64956674 -125.27537223 72.64956674 -126.51953125 75.36328125 C-128.44277088 79.12296347 -130.71227391 82.46172655 -133.1640625 85.890625 C-133.60234375 86.52291016 -134.040625 87.15519531 -134.4921875 87.80664062 C-137.80210407 92.45747219 -137.80210407 92.45747219 -141.1640625 93.578125 C-141.4528125 94.34125 -141.7415625 95.104375 -142.0390625 95.890625 C-143.455252 99.27374435 -145.24281297 100.40417186 -148.1640625 102.578125 C-148.9478125 103.3825 -149.7315625 104.186875 -150.5390625 105.015625 C-156.03018772 110.37600915 -158.93695937 112.87453574 -166.75390625 113.06640625 C-169.20360332 113.03339146 -171.65306487 112.97408192 -174.1015625 112.890625 C-175.98584961 112.85678711 -175.98584961 112.85678711 -177.90820312 112.82226562 C-180.99472665 112.76358647 -184.07876736 112.68153027 -187.1640625 112.578125 C-187.1640625 111.588125 -187.1640625 110.598125 -187.1640625 109.578125 C-186.41382813 109.28679687 -185.66359375 108.99546875 -184.890625 108.6953125 C-153.04136941 95.9395653 -137.40911275 68.54693306 -122.97143555 39.10180664 C-111.5190192 15.80632711 -95.87988193 -2.75282916 -71.1640625 -12.421875 C-46.54504674 -20.26836345 -20.32965624 -15.56097144 0 0 Z " fill="#1179D2" transform="translate(409.1640625,132.421875)"/>
<path d="M0 0 C0 0.99 0 1.98 0 3 C-0.95519531 3.3403125 -1.91039062 3.680625 -2.89453125 4.03125 C-23.74436308 11.72744215 -35.99532615 26.25318444 -45.55078125 46.0625 C-47.83043165 50.68324689 -50.27590336 55.2154552 -52.70263672 59.76025391 C-54.51595282 63.16509076 -56.29946098 66.57824664 -58.01171875 70.03515625 C-63.44300761 80.95934661 -69.47011827 91.37400558 -77 101 C-77.65355469 101.86238281 -78.30710937 102.72476563 -78.98046875 103.61328125 C-83.38257584 108.81577144 -83.38257584 108.81577144 -87.00195312 109.22802734 C-89.42570756 109.29569303 -91.82651627 109.26134052 -94.25 109.1875 C-95.09046875 109.17396484 -95.9309375 109.16042969 -96.796875 109.14648438 C-98.86485938 109.11123464 -100.93251271 109.0574302 -103 109 C-102.40861603 105.61362274 -102.24472328 105.17241867 -99.25 103.0625 C-98.1775 102.381875 -97.105 101.70125 -96 101 C-91.88775355 97.24681296 -88.78782853 93.1428071 -85.6875 88.5625 C-85.20458496 87.85222656 -84.72166992 87.14195312 -84.22412109 86.41015625 C-79.78384479 79.80356779 -75.80392926 72.99041813 -72 66 C-71.50177734 65.09088867 -71.00355469 64.18177734 -70.49023438 63.24511719 C-68.78061143 60.1242015 -67.0764713 57.00036698 -65.375 53.875 C-64.56699951 52.3909668 -64.56699951 52.3909668 -63.74267578 50.87695312 C-60.48604195 44.85641964 -57.37165595 38.78612489 -54.38134766 32.62866211 C-52.33242184 28.72961928 -49.80350303 25.38026538 -47 22 C-46.505 21.37222656 -46.01 20.74445313 -45.5 20.09765625 C-42.37128198 16.24379264 -39.29014996 13.5919656 -35 11 C-33.7315625 10.0409375 -33.7315625 10.0409375 -32.4375 9.0625 C-23.18679287 2.90347657 -11.07420599 -0.47124281 0 0 Z " fill="#0975D3" transform="translate(370,136)"/>
<path d="M0 0 C0.556875 1.05316406 1.11375 2.10632813 1.6875 3.19140625 C2.45827565 4.64846802 3.22911369 6.10549678 4 7.5625 C4.60642334 8.70875854 4.60642334 8.70875854 5.22509766 9.87817383 C8.25077408 15.59366833 11.2900473 21.30176361 14.34765625 27.00024414 C15.237697 28.6636721 16.11903517 30.3317476 17 32 C17.58652344 33.08152344 18.17304688 34.16304687 18.77734375 35.27734375 C20 38 20 38 19.1875 40.375 C18.795625 40.91125 18.40375 41.4475 18 42 C17.71125 41.05125 17.4225 40.1025 17.125 39.125 C16.23174891 35.94788422 16.23174891 35.94788422 14 34 C14 33.01 14 32.02 14 31 C11.03 31.33 8.06 31.66 5 32 C5 33.32 5 34.64 5 36 C4.34 36 3.68 36 3 36 C2.34 37.65 1.68 39.3 1 41 C0.01 41 -0.98 41 -2 41 C-2.5775 40.34 -3.155 39.68 -3.75 39 C-6.83247097 36.2600258 -8.99495477 36.9258325 -13 37 C-13.66 36.01 -14.32 35.02 -15 34 C-18.08365871 33.7497843 -18.08365871 33.7497843 -21 34 C-20.42547254 37.93075644 -20.42547254 37.93075644 -18 41 C-18 41.99 -18 42.98 -18 44 C-22.56038849 42.4798705 -23.43220682 39.1112114 -25.546875 34.97265625 C-26.02640625 33.99167969 -26.5059375 33.01070312 -27 32 C-27.41765625 31.21496094 -27.8353125 30.42992187 -28.265625 29.62109375 C-29.33271124 27.25402546 -29.93313859 25.6031377 -30 23 C-28.4585715 19.30472359 -26.41259084 16.18355651 -24 13 C-22.1171875 13.29296875 -22.1171875 13.29296875 -20 14 C-18.49862414 16.65243069 -17.25050864 19.23101657 -16 22 C-14.92409307 24.17036399 -13.84049498 26.33692898 -12.75 28.5 C-11.83333333 30.33333333 -10.91666667 32.16666667 -10 34 C-6.98270629 33.3104632 -6.98270629 33.3104632 -5.734375 31.3125 C-4.16707085 27.63057915 -3.35800291 24.79177441 -4.75439453 20.89453125 C-6.90520122 16.29823264 -9.45116786 11.9377162 -12.1262207 7.62890625 C-13 6 -13 6 -13 4 C-11.77779263 3.32065893 -10.54681549 2.65708477 -9.3125 2 C-8.62800781 1.62875 -7.94351562 1.2575 -7.23828125 0.875 C-4.68468296 -0.1232653 -2.71820729 -0.15233386 0 0 Z " fill="#1078D2" transform="translate(385,161)"/>
<path d="M0 0 C-0.33 0.66 -0.66 1.32 -1 2 C-3.06640625 2.4140625 -3.06640625 2.4140625 -5.5625 2.625 C-6.38878906 2.69976562 -7.21507812 2.77453125 -8.06640625 2.8515625 C-9.02353516 2.92503906 -9.02353516 2.92503906 -10 3 C-10.33 3.99 -10.66 4.98 -11 6 C-10.34 6.66 -9.68 7.32 -9 8 C-9.66 9.32 -10.32 10.64 -11 12 C-10.25878906 11.71125 -9.51757812 11.4225 -8.75390625 11.125 C-2.02504233 8.7530137 3.88876865 7.59336807 11 7.5625 C11.71728271 7.55283203 12.43456543 7.54316406 13.17358398 7.53320312 C17.57195786 7.60353573 20.53586123 8.23274852 24 11 C24 11.66 24 12.32 24 13 C23.26136719 12.84402344 22.52273438 12.68804687 21.76171875 12.52734375 C6.96999359 9.68928721 -6.29037409 12.11729397 -18.9375 20.6875 C-30.18828573 29.59641912 -35.63675326 43.47403264 -42 56 C-43.22419163 52.06204091 -42.48320272 49.83887763 -41 46 C-41.66 46 -42.32 46 -43 46 C-42.505 43.03 -42.505 43.03 -42 40 C-44.95917056 39.68583145 -44.95917056 39.68583145 -46.625 41.3125 C-48.21819559 43.06440884 -48.21819559 43.06440884 -49 46 C-50.485 46.495 -50.485 46.495 -52 47 C-46.90373752 29.72933272 -36.4492521 13.77875314 -20.4296875 4.9921875 C-7.3137341 -1.88067448 -7.3137341 -1.88067448 0 0 Z " fill="#0975D2" transform="translate(385,143)"/>
<path d="M0 0 C1.8125 2.25 1.8125 2.25 3 5 C3.5878125 6.1446875 3.5878125 6.1446875 4.1875 7.3125 C4.455625 7.869375 4.72375 8.42625 5 9 C5.66 9 6.32 9 7 9 C7.48212214 10.56159059 7.96055873 12.12431928 8.4375 13.6875 C8.70433594 14.55761719 8.97117187 15.42773438 9.24609375 16.32421875 C10.6925266 21.45793121 10.6925266 21.45793121 11 24 C8.4345406 26.5654594 6.52313332 26.54046087 3 27 C2.505 23.04 2.505 23.04 2 19 C0.68 19 -0.64 19 -2 19 C-2 16.69 -2 14.38 -2 12 C-2.763125 12.061875 -3.52625 12.12375 -4.3125 12.1875 C-7.48780806 11.96596688 -7.95735659 11.28224968 -10 9 C-10.33773437 9.5053125 -10.67546875 10.010625 -11.0234375 10.53125 C-11.69246094 11.50578125 -11.69246094 11.50578125 -12.375 12.5 C-12.81585938 13.1496875 -13.25671875 13.799375 -13.7109375 14.46875 C-14.13632812 14.9740625 -14.56171875 15.479375 -15 16 C-15.66 16 -16.32 16 -17 16 C-17 16.66 -17 17.32 -17 18 C-22.49791694 22.30475198 -28.10017155 24.66505689 -34.96875 25.67578125 C-37.0613856 25.90542464 -37.0613856 25.90542464 -39 27 C-40.49756871 27.09499503 -41.99942932 27.12987198 -43.5 27.125 C-44.2940625 27.12757813 -45.088125 27.13015625 -45.90625 27.1328125 C-48 27 -48 27 -50 26 C-50 26.66 -50 27.32 -50 28 C-51.32 27.67 -52.64 27.34 -54 27 C-53.4740625 26.1028125 -53.4740625 26.1028125 -52.9375 25.1875 C-51.66695302 22.89186786 -51.66695302 22.89186786 -53 20 C-52.34 20 -51.68 20 -51 20 C-51 20.66 -51 21.32 -51 22 C-48.09399739 23.25664978 -46.20395416 24 -43 24 C-43.350625 23.38125 -43.70125 22.7625 -44.0625 22.125 C-44.371875 21.42375 -44.68125 20.7225 -45 20 C-44.67 19.34 -44.34 18.68 -44 18 C-45.32 17.67 -46.64 17.34 -48 17 C-46.08594633 16.32586789 -44.16863974 15.6609668 -42.25 15 C-41.18265625 14.62875 -40.1153125 14.2575 -39.015625 13.875 C-36 13 -36 13 -32 13 C-33.0209375 11.39125 -33.0209375 11.39125 -34.0625 9.75 C-36.03471002 6.33842267 -36.03471002 6.33842267 -35.75 3.5625 C-35.5025 3.046875 -35.255 2.53125 -35 2 C-33.824375 2.0309375 -33.824375 2.0309375 -32.625 2.0625 C-30.01885039 2.18684063 -30.01885039 2.18684063 -28 1 C-27.67 2.65 -27.34 4.3 -27 6 C-25.783125 5.731875 -24.56625 5.46375 -23.3125 5.1875 C-21.11328125 4.890625 -21.11328125 4.890625 -19 5 C-16 7.4375 -16 7.4375 -14 10 C-13.319375 8.7625 -13.319375 8.7625 -12.625 7.5 C-12.08875 6.675 -11.5525 5.85 -11 5 C-10.34 5 -9.68 5 -9 5 C-9 3.68 -9 2.36 -9 1 C-5.88122044 -0.55938978 -3.42744229 -0.3607834 0 0 Z " fill="#197DD2" transform="translate(399,192)"/>
<path d="M0 0 C0 0.99 0 1.98 0 3 C-0.95519531 3.3403125 -1.91039062 3.680625 -2.89453125 4.03125 C-20.46409475 10.51661342 -30.88691562 20.79711629 -40.58984375 36.78515625 C-42 39 -42 39 -44 41 C-44.125 35.25 -44.125 35.25 -43 33 C-42.34 33 -41.68 33 -41 33 C-41 32.01 -41 31.02 -41 30 C-40.34 30 -39.68 30 -39 30 C-37.52952664 26.08936776 -37.52952664 26.08936776 -37 22 C-39.31 21.67 -41.62 21.34 -44 21 C-44 21.99 -44 22.98 -44 24 C-44.99 24 -45.98 24 -47 24 C-46.938125 24.7425 -46.87625 25.485 -46.8125 26.25 C-47.03613612 29.52999639 -47.83075189 30.58972433 -50 33 C-50.53625 33.433125 -51.0725 33.86625 -51.625 34.3125 C-53.7302123 36.89616964 -53.58016685 39.76128714 -54 43 C-54.99 43.495 -54.99 43.495 -56 44 C-56.66 43.67 -57.32 43.34 -58 43 C-58.12375 43.94875 -58.2475 44.8975 -58.375 45.875 C-59 49 -59 49 -61 51 C-61.6425235 53.06874034 -61.6425235 53.06874034 -62 55 C-62.66 55 -63.32 55 -64 55 C-64.33 56.32 -64.66 57.64 -65 59 C-65.66 59 -66.32 59 -67 59 C-62.45717582 44.15551898 -53.64439901 27.31782191 -42 17 C-41.52949219 16.5153125 -41.05898438 16.030625 -40.57421875 15.53125 C-30.09585706 5.33889819 -14.59845604 -0.6212109 0 0 Z " fill="#3C8CCB" transform="translate(370,136)"/>
<path d="M0 0 C0.99 0.33 1.98 0.66 3 1 C3.33 2.65 3.66 4.3 4 6 C4.66 6 5.32 6 6 6 C6 8.31 6 10.62 6 13 C6.99 13.33 7.98 13.66 9 14 C10.90318884 16.85478326 11.4619099 18.41941308 12.125 21.6875 C12.29257812 22.49574219 12.46015625 23.30398437 12.6328125 24.13671875 C12.75398438 24.75160156 12.87515625 25.36648437 13 26 C9.50001799 26.02934711 6.00006821 26.04691445 2.5 26.0625 C1.51773437 26.07087891 0.53546875 26.07925781 -0.4765625 26.08789062 C-6.08674757 26.10659124 -11.45150899 25.838879 -17 25 C-17 24.34 -17 23.68 -17 23 C-15.02 23.33 -13.04 23.66 -11 24 C-10.87625 23.21625 -10.7525 22.4325 -10.625 21.625 C-10 19 -10 19 -8 17 C-6.68 17 -5.36 17 -4 17 C-4.19529297 15.78763672 -4.19529297 15.78763672 -4.39453125 14.55078125 C-5.50769595 5.92635567 -5.50769595 5.92635567 -3.953125 3.08984375 C-2.5625 1.75 -2.5625 1.75 0 0 Z " fill="#0676D6" transform="translate(411,217)"/>
<path d="M0 0 C0.33 0.66 0.66 1.32 1 2 C1.99 2 2.98 2 4 2 C4.6875 3.75 4.6875 3.75 5 6 C3.6875 8.25 3.6875 8.25 2 10 C1.34 10 0.68 10 0 10 C0 10.99 0 11.98 0 13 C-0.66 13 -1.32 13 -2 13 C-2.08636719 13.67546875 -2.17273438 14.3509375 -2.26171875 15.046875 C-3.43399482 22.48921484 -3.43399482 22.48921484 -6.5625 25.3125 C-7.366875 25.869375 -8.17125 26.42625 -9 27 C-9.87943404 29.63460948 -9.87943404 29.63460948 -10 32 C-10.99 32 -11.98 32 -13 32 C-13.33 34.31 -13.66 36.62 -14 39 C-14.99 38.67 -15.98 38.34 -17 38 C-17 36.68 -17 35.36 -17 34 C-18.32 34 -19.64 34 -21 34 C-20.21681311 30.08406554 -18.60820142 26.63593365 -17 23 C-16.01 23 -15.02 23 -14 23 C-13.95875 21.989375 -13.9175 20.97875 -13.875 19.9375 C-13.31389685 15.72922637 -11.20452138 13.65156214 -8.3671875 10.64453125 C-6.61691548 8.53920404 -6.1643052 6.71103582 -6 4 C-5.01 4 -4.02 4 -3 4 C-3 3.01 -3 2.02 -3 1 C-2.01 0.67 -1.02 0.34 0 0 Z " fill="#0775D5" transform="translate(329,156)"/>
<path d="M0 0 C1.8828125 0.29296875 1.8828125 0.29296875 4 1 C5.50137586 3.65243069 6.74949136 6.23101657 8 9 C9.07590693 11.17036399 10.15950502 13.33692898 11.25 15.5 C12.16666667 17.33333333 13.08333333 19.16666667 14 21 C14.99 20.67 15.98 20.34 17 20 C18.21869929 17.49552484 18.21869929 17.49552484 19 15 C20.25541557 18.76624671 19.37061958 20.37188934 18 24 C14.625 24.1875 14.625 24.1875 11 24 C10.34 23.01 9.68 22.02 9 21 C5.91634129 20.7497843 5.91634129 20.7497843 3 21 C3.57452746 24.93075644 3.57452746 24.93075644 6 28 C6 28.99 6 29.98 6 31 C1.43961151 29.4798705 0.56779318 26.1112114 -1.546875 21.97265625 C-2.02640625 20.99167969 -2.5059375 20.01070312 -3 19 C-3.41765625 18.21496094 -3.8353125 17.42992187 -4.265625 16.62109375 C-5.33271124 14.25402546 -5.93313859 12.6031377 -6 10 C-4.4585715 6.30472359 -2.41259084 3.18355651 0 0 Z " fill="#1E81D2" transform="translate(361,174)"/>
<path d="M0 0 C0.66 0 1.32 0 2 0 C1.5535141 5.06017356 -0.595189 7.43305514 -4 11 C-4.99 11.33 -5.98 11.66 -7 12 C-7.309375 12.804375 -7.61875 13.60875 -7.9375 14.4375 C-9 17 -9 17 -11.125 18.3125 C-11.74375 18.539375 -12.3625 18.76625 -13 19 C-13 19.99 -13 20.98 -13 22 C-15.97 22.66 -18.94 23.32 -22 24 C-23.34513424 27.85938975 -23.34513424 27.85938975 -22 31 C-18.7 31 -15.4 31 -12 31 C-11.67 29.35 -11.34 27.7 -11 26 C-10.01 25.67 -9.02 25.34 -8 25 C-8.495 23.02 -8.495 23.02 -9 21 C-8.34 21 -7.68 21 -7 21 C-6.67 20.34 -6.34 19.68 -6 19 C-5.01 19 -4.02 19 -3 19 C-2.34 20.32 -1.68 21.64 -1 23 C-2.62642227 24.72807366 -4.28038579 26.36742799 -6 28 C-6.51175781 28.52142578 -7.02351563 29.04285156 -7.55078125 29.58007812 C-13.80975248 35.17984507 -19.93774525 34.70702527 -28 34.375 C-29.25167969 34.34792969 -30.50335938 34.32085937 -31.79296875 34.29296875 C-34.86378464 34.22264472 -37.93097285 34.12426501 -41 34 C-41 33.01 -41 32.02 -41 31 C-40.24976563 30.70867187 -39.49953125 30.41734375 -38.7265625 30.1171875 C-24.22036077 24.3073989 -7.31921785 14.6384357 0 0 Z " fill="#217FD0" transform="translate(263,211)"/>
<path d="M0 0 C11.69669829 3.59366801 20.40841823 10.59445642 29 19 C25.34648137 19 23.93973224 18.11057699 21 16 C19.6875 13.8125 19.6875 13.8125 19 12 C17.906875 12.185625 16.81375 12.37125 15.6875 12.5625 C12 13 12 13 9 12 C9.185625 13.299375 9.37125 14.59875 9.5625 15.9375 C9.87890625 18.15234375 9.87890625 18.15234375 10 20 C9 21 9 21 6.05859375 21.09765625 C4.86363281 21.08605469 3.66867187 21.07445312 2.4375 21.0625 C0.64119141 21.04896484 0.64119141 21.04896484 -1.19140625 21.03515625 C-2.11824219 21.02355469 -3.04507812 21.01195312 -4 21 C-4 20.67 -4 20.34 -4 20 C-0.37 19.67 3.26 19.34 7 19 C-0.74597978 14.96336265 -8.3118289 11.40131792 -17 10 C-17 9.67 -17 9.34 -17 9 C-14.54126232 9.14058476 -12.08314825 9.28722999 -9.625 9.4375 C-8.92632812 9.47681641 -8.22765625 9.51613281 -7.5078125 9.55664062 C-2.2265625 9.88671875 -2.2265625 9.88671875 0 11 C-1.32 9.35 -2.64 7.7 -4 6 C-3.01 6 -2.02 6 -1 6 C-1.33 5.01 -1.66 4.02 -2 3 C-1.34 2.34 -0.68 1.68 0 1 C0 0.67 0 0.34 0 0 Z " fill="#207FD0" transform="translate(388,121)"/>
<path d="M0 0 C1.8125 2.25 1.8125 2.25 3 5 C3.391875 5.763125 3.78375 6.52625 4.1875 7.3125 C4.455625 7.869375 4.72375 8.42625 5 9 C5.66 9 6.32 9 7 9 C7.48212214 10.56159059 7.96055873 12.12431928 8.4375 13.6875 C8.70433594 14.55761719 8.97117187 15.42773438 9.24609375 16.32421875 C10.6925266 21.45793121 10.6925266 21.45793121 11 24 C8.4345406 26.5654594 6.52313332 26.54046087 3 27 C2.67 24.36 2.34 21.72 2 19 C0.68 19 -0.64 19 -2 19 C-2 16.69 -2 14.38 -2 12 C-3.32 12 -4.64 12 -6 12 C-8.15305957 8.14243493 -9.39253254 5.44870215 -9 1 C-5.88122044 -0.55938978 -3.42744229 -0.3607834 0 0 Z " fill="#0A76D5" transform="translate(399,192)"/>
<path d="M0 0 C-0.33 1.32 -0.66 2.64 -1 4 C-1.66 4 -2.32 4 -3 4 C-3.33 5.65 -3.66 7.3 -4 9 C-1.69 9.33 0.62 9.66 3 10 C3.33 9.34 3.66 8.68 4 8 C4 8.66 4 9.32 4 10 C5.65 10 7.3 10 9 10 C9 9.34 9 8.68 9 8 C16.92 8 24.84 8 33 8 C33 8.33 33 8.66 33 9 C31.90042969 9.03738281 30.80085938 9.07476562 29.66796875 9.11328125 C14.78895275 9.72726627 2.333965 13.15964443 -11 20 C-11 19.01 -11 18.02 -11 17 C-10.01 17 -9.02 17 -8 17 C-8.33 15.02 -8.66 13.04 -9 11 C-13.01804691 10.15901344 -16.01803543 9.94595055 -20 11 C-16.8581736 7.51079722 -13.57020193 5.45034642 -9.4375 3.25 C-8.30183594 2.63640625 -7.16617187 2.0228125 -5.99609375 1.390625 C-3 0 -3 0 0 0 Z " fill="#1C7DCE" transform="translate(338,121)"/>
<path d="M0 0 C2.475 0.495 2.475 0.495 5 1 C3.24175061 5.87425803 0.75678766 10.29505974 -1.75 14.8125 C-2.37648438 15.96588867 -2.37648438 15.96588867 -3.015625 17.14257812 C-5.94664158 22.43717362 -9.24820489 27.25341074 -13 32 C-14 29 -14 29 -13.22265625 27.17578125 C-12.1484375 25.45052083 -11.07421875 23.72526042 -10 22 C-9.34 22 -8.68 22 -8 22 C-8.495 19.525 -8.495 19.525 -9 17 C-8.34 17 -7.68 17 -7 17 C-9.03802135 12.93975679 -9.03802135 12.93975679 -13 11 C-13 12.65 -13 14.3 -13 16 C-13.99 16.33 -14.98 16.66 -16 17 C-18.88535357 19.46103687 -20.45712148 21.19985035 -21 25 C-22.32 25.33 -23.64 25.66 -25 26 C-22.78926513 21.4464504 -20.13812492 17.19007254 -17.5 12.875 C-16.75169922 11.63943359 -16.75169922 11.63943359 -15.98828125 10.37890625 C-15.26705078 9.19748047 -15.26705078 9.19748047 -14.53125 7.9921875 C-14.09361328 7.27401855 -13.65597656 6.55584961 -13.20507812 5.81591797 C-12 4 -12 4 -10 2 C-10.33 4.31 -10.66 6.62 -11 9 C-10.01 8.67 -9.02 8.34 -8 8 C-7.67 7.34 -7.34 6.68 -7 6 C-4.69 6.33 -2.38 6.66 0 7 C0 4.69 0 2.38 0 0 Z " fill="#197BCE" transform="translate(308,202)"/>
<path d="M0 0 C0.66 0.33 1.32 0.66 2 1 C2 1.66 2 2.32 2 3 C2.99 2.67 3.98 2.34 5 2 C5.33 2.66 5.66 3.32 6 4 C7.64363134 4.72159424 9.31050386 5.39351421 11 6 C9.57612073 8.13581891 8.15200053 10.27147077 6.7265625 12.40625 C5.59152298 14.11137725 4.46116706 15.8196332 3.3359375 17.53125 C2.81257813 18.3253125 2.28921875 19.119375 1.75 19.9375 C1.27046875 20.66839844 0.7909375 21.39929688 0.296875 22.15234375 C-1 24 -1 24 -3 26 C-3.125 20.25 -3.125 20.25 -2 18 C-1.34 18 -0.68 18 0 18 C0 17.01 0 16.02 0 15 C0.66 15 1.32 15 2 15 C3.47047336 11.08936776 3.47047336 11.08936776 4 7 C1.69 6.67 -0.62 6.34 -3 6 C-3 6.99 -3 7.98 -3 9 C-3.99 9 -4.98 9 -6 9 C-5.938125 9.7425 -5.87625 10.485 -5.8125 11.25 C-6.03613612 14.52999639 -6.83075189 15.58972433 -9 18 C-9.53625 18.433125 -10.0725 18.86625 -10.625 19.3125 C-12.7302123 21.89616964 -12.58016685 24.76128714 -13 28 C-13.66 28.33 -14.32 28.66 -15 29 C-15.66 28.67 -16.32 28.34 -17 28 C-17.12375 28.94875 -17.2475 29.8975 -17.375 30.875 C-18 34 -18 34 -20 36 C-20.6425235 38.06874034 -20.6425235 38.06874034 -21 40 C-21.66 40 -22.32 40 -23 40 C-23.33 41.32 -23.66 42.64 -24 44 C-24.66 44 -25.32 44 -26 44 C-21.70997711 29.98159187 -13.2872698 13.1126915 -2.34765625 3.26953125 C-0.86673067 2.02045572 -0.86673067 2.02045572 0 0 Z " fill="#3085CC" transform="translate(329,151)"/>
<path d="M0 0 C2.375 0.25 2.375 0.25 5 1 C7.09862498 3.89810116 7 5.28378861 7 9 C6.30132812 9.13277344 5.60265625 9.26554688 4.8828125 9.40234375 C3.97273438 9.57894531 3.06265625 9.75554687 2.125 9.9375 C1.22007812 10.11152344 0.31515625 10.28554687 -0.6171875 10.46484375 C-2.99956317 10.89963701 -2.99956317 10.89963701 -5 12 C-6.49756871 12.09499503 -7.99942932 12.12987198 -9.5 12.125 C-10.2940625 12.12757813 -11.088125 12.13015625 -11.90625 12.1328125 C-14 12 -14 12 -16 11 C-16 11.66 -16 12.32 -16 13 C-17.32 12.67 -18.64 12.34 -20 12 C-19.4740625 11.1028125 -19.4740625 11.1028125 -18.9375 10.1875 C-17.66695302 7.89186786 -17.66695302 7.89186786 -19 5 C-18.34 5 -17.68 5 -17 5 C-17 5.66 -17 6.32 -17 7 C-14.09399739 8.25664978 -12.20395416 9 -9 9 C-9.350625 8.38125 -9.70125 7.7625 -10.0625 7.125 C-10.371875 6.42375 -10.68125 5.7225 -11 5 C-10.67 4.34 -10.34 3.68 -10 3 C-7.71484375 2.5859375 -7.71484375 2.5859375 -4.9375 2.375 C-4.01839844 2.30023438 -3.09929687 2.22546875 -2.15234375 2.1484375 C-1.44207031 2.09945312 -0.73179687 2.05046875 0 2 C0 1.34 0 0.68 0 0 Z " fill="#0876D6" transform="translate(365,207)"/>
<path d="M0 0 C1.32 0 2.64 0 4 0 C4 2.31 4 4.62 4 7 C5.32 7 6.64 7 8 7 C8.59732819 9.76264289 9 12.16032769 9 15 C9.33 14.34 9.66 13.68 10 13 C11.65 13 13.3 13 15 13 C16.09447084 9.05990499 15.83426173 7.55388209 14 4 C14.4375 1.87890625 14.4375 1.87890625 15 0 C15.39832031 0.80824219 15.79664063 1.61648437 16.20703125 2.44921875 C16.73683594 3.51785156 17.26664062 4.58648437 17.8125 5.6875 C18.33457031 6.74324219 18.85664063 7.79898438 19.39453125 8.88671875 C20.93556217 11.99030729 20.93556217 11.99030729 22.75 14.75 C23.1625 15.4925 23.575 16.235 24 17 C23.1875 19.3125 23.1875 19.3125 22 21 C21.67 18.69 21.34 16.38 21 14 C20.4225 14.28875 19.845 14.5775 19.25 14.875 C16.125 16.4375 16.125 16.4375 13 18 C13.66 21.63 14.32 25.26 15 29 C10.71 29 6.42 29 2 29 C2 28.67 2 28.34 2 28 C5.63 27.67 9.26 27.34 13 27 C12.31292969 25.69804687 11.62585938 24.39609375 10.91796875 23.0546875 C10.00777927 21.32814252 9.09762487 19.60157904 8.1875 17.875 C7.73568359 17.0190625 7.28386719 16.163125 6.81835938 15.28125 C0 2.3412979 0 2.3412979 0 0 Z " fill="#3B8BCB" transform="translate(393,204)"/>
<path d="M0 0 C1 2 1 2 0.1875 4.875 C-1.12783947 8.33641965 -2.37453212 11.18208046 -4.625 14.125 C-6.19712122 15.88127926 -6.19712122 15.88127926 -6 18 C-4.68 18.66 -3.36 19.32 -2 20 C-2.99 22.31 -3.98 24.62 -5 27 C-3.68 27 -2.36 27 -1 27 C-2.44950455 30.7910119 -4.15172566 34.3874638 -6 38 C-7.46726798 34.18510326 -6.43336419 31.70988378 -5 28 C-5.66 28 -6.32 28 -7 28 C-6.67 26.02 -6.34 24.04 -6 22 C-8.95917056 21.68583145 -8.95917056 21.68583145 -10.625 23.3125 C-12.21819559 25.06440884 -12.21819559 25.06440884 -13 28 C-13.99 28.33 -14.98 28.66 -16 29 C-12.73314182 17.9289806 -7.38009014 8.84300742 0 0 Z " fill="#1F81D0" transform="translate(349,161)"/>
<path d="M0 0 C0.33 0 0.66 0 1 0 C1 1.65 1 3.3 1 5 C1.66 5 2.32 5 3 5 C3.33 8.3 3.66 11.6 4 15 C3.34 15 2.68 15 2 15 C2 15.99 2 16.98 2 18 C-1.3 18 -4.6 18 -8 18 C-7.67 14.7 -7.34 11.4 -7 8 C-6.34 8 -5.68 8 -5 8 C-4.731875 7.4225 -4.46375 6.845 -4.1875 6.25 C-2.97790559 3.95813691 -1.64363461 2.00094648 0 0 Z " fill="#0875D5" transform="translate(317,225)"/>
<path d="M0 0 C0 0.99 0 1.98 0 3 C-13.6332574 8.92482916 -13.6332574 8.92482916 -20 7 C-20.33 8.32 -20.66 9.64 -21 11 C-21 10.34 -21 9.68 -21 9 C-21.66 9 -22.32 9 -23 9 C-23 10.32 -23 11.64 -23 13 C-23.99 13 -24.98 13 -26 13 C-26 12.01 -26 11.02 -26 10 C-27.98 10 -29.96 10 -32 10 C-25.31281174 1.98005044 -10.04275842 -0.42735142 0 0 Z " fill="#2881CB" transform="translate(370,136)"/>
<path d="M0 0 C0.66 0.33 1.32 0.66 2 1 C1.67 1.33 1.34 1.66 1 2 C3.81509993 4.2773501 3.81509993 4.2773501 7 4 C7 7.12889911 6.95852283 9.1244315 6 12 C5.34 12.66 4.68 13.32 4 14 C4 15.32 4 16.64 4 18 C4.99 18 5.98 18 7 18 C7.33 20.64 7.66 23.28 8 26 C4.44119972 22.69933444 2.50935919 18.80681672 0.25 14.5625 C-0.17410156 13.79873047 -0.59820312 13.03496094 -1.03515625 12.24804688 C-1.43089844 11.50748047 -1.82664062 10.76691406 -2.234375 10.00390625 C-2.77916504 8.99565796 -2.77916504 8.99565796 -3.33496094 7.96704102 C-4.16277752 5.51853947 -4.00713532 4.36652145 -3 2 C-2.01 1.34 -1.02 0.68 0 0 Z " fill="#0B74CB" transform="translate(377,215)"/>
<path d="M0 0 C7.46088447 5.37132404 12.0158695 14.39868266 15 23 C15.1875 25.9375 15.1875 25.9375 15 28 C11.96147295 26.59023295 9.4060405 24.91129772 6.75 22.875 C6.04359375 22.33617187 5.3371875 21.79734375 4.609375 21.2421875 C4.07828125 20.83226562 3.5471875 20.42234375 3 20 C4.32 19.34 5.64 18.68 7 18 C6.74688554 13.78142561 6.32945642 11.00615639 3.5 7.875 C1.01749671 5.02012122 0.32488082 3.68198266 0 0 Z " fill="#3385CB" transform="translate(417,142)"/>
<path d="M0 0 C0.99 0.33 1.98 0.66 3 1 C3 2.32 3 3.64 3 5 C2.34 5 1.68 5 1 5 C1 5.99 1 6.98 1 8 C-3.06849728 11.78791126 -7.54514209 11.25039896 -12.76953125 11.10546875 C-13.50558594 11.07066406 -14.24164063 11.03585938 -15 11 C-13.59308516 7.6712685 -11.99308419 5.86832628 -9.125 3.6875 C-8.44695312 3.15511719 -7.76890625 2.62273437 -7.0703125 2.07421875 C-5 1 -5 1 -2.7421875 1.33203125 C-2.16726563 1.55246094 -1.59234375 1.77289063 -1 2 C-0.67 1.34 -0.34 0.68 0 0 Z " fill="#0575D9" transform="translate(288,231)"/>
<path d="M0 0 C0.99 0 1.98 0 3 0 C4.6875 2 4.6875 2 6 4 C4.37357773 5.72807366 2.71961421 7.36742799 1 9 C0.23236328 9.78213867 0.23236328 9.78213867 -0.55078125 10.58007812 C-6.80975248 16.17984507 -12.93774525 15.70702527 -21 15.375 C-22.25167969 15.34792969 -23.50335938 15.32085937 -24.79296875 15.29296875 C-27.86378464 15.22264472 -30.93097285 15.12426501 -34 15 C-33.67 14.01 -33.34 13.02 -33 12 C-33 12.66 -33 13.32 -33 14 C-29.08305929 13.86100313 -25.16652898 13.71261867 -21.25 13.5625 C-20.13882813 13.52318359 -19.02765625 13.48386719 -17.8828125 13.44335938 C-16.27792969 13.38051758 -16.27792969 13.38051758 -14.640625 13.31640625 C-13.65610352 13.27974854 -12.67158203 13.24309082 -11.65722656 13.20532227 C-9.31076449 13.02401258 -7.25281588 12.65668181 -5 12 C-4.67 10.35 -4.34 8.7 -4 7 C-3.01 6.67 -2.02 6.34 -1 6 C-1.495 4.02 -1.495 4.02 -2 2 C-1.34 2 -0.68 2 0 2 C0 1.34 0 0.68 0 0 Z " fill="#4893D0" transform="translate(256,230)"/>
<path d="M0 0 C0.66 0 1.32 0 2 0 C1.5535141 5.06017356 -0.595189 7.43305514 -4 11 C-4.99 11.33 -5.98 11.66 -7 12 C-7.309375 12.804375 -7.61875 13.60875 -7.9375 14.4375 C-9 17 -9 17 -11.125 18.3125 C-12.053125 18.6528125 -12.053125 18.6528125 -13 19 C-13 19.99 -13 20.98 -13 22 C-20.42857143 24.42857143 -20.42857143 24.42857143 -24 23 C-23.113125 22.4225 -22.22625 21.845 -21.3125 21.25 C-13.4804764 16.0102659 -4.29467637 8.58935275 0 0 Z " fill="#4793CE" transform="translate(263,211)"/>
<path d="M0 0 C2.31 0.66 4.62 1.32 7 2 C7.33 3.98 7.66 5.96 8 8 C4.26513121 8.5745952 0.78706732 9 -3 9 C-3 7.68 -3 6.36 -3 5 C-3.48210937 5.433125 -3.96421875 5.86625 -4.4609375 6.3125 C-5.40839844 7.1478125 -5.40839844 7.1478125 -6.375 8 C-7.00148438 8.556875 -7.62796875 9.11375 -8.2734375 9.6875 C-10 11 -10 11 -12 11 C-10.93394544 7.80183632 -10.16342286 6.95971362 -7.6875 4.8125 C-7.09324219 4.28269531 -6.49898438 3.75289062 -5.88671875 3.20703125 C-4 2 -4 2 0 2 C0 1.34 0 0.68 0 0 Z " fill="#0774CD" transform="translate(322,130)"/>
<path d="M0 0 C0.66 0.33 1.32 0.66 2 1 C1.01 2.485 1.01 2.485 0 4 C0.31506627 7.14221967 0.31506627 7.14221967 1 10 C1.66 10 2.32 10 3 10 C2.8125 12.375 2.8125 12.375 2 15 C-0.5625 16.3125 -0.5625 16.3125 -3 17 C-5.57603912 14.42396088 -5.3558611 13.20750718 -5.4375 9.625 C-5.37591677 4.40411053 -5.37591677 4.40411053 -2.5 1.3125 C-1.675 0.879375 -0.85 0.44625 0 0 Z " fill="#0676D4" transform="translate(303,148)"/>
<path d="M0 0 C1.1127832 -0.02416992 1.1127832 -0.02416992 2.24804688 -0.04882812 C6.76756601 -0.05285263 9.79028723 0.34417436 13.4375 3.3125 C13.4375 3.9725 13.4375 4.6325 13.4375 5.3125 C12.32955078 5.07853516 12.32955078 5.07853516 11.19921875 4.83984375 C3.96877523 3.45255408 -2.29113063 3.26396398 -9.5625 4.3125 C-10.67238281 4.45945313 -10.67238281 4.45945313 -11.8046875 4.609375 C-13.39311024 4.82626806 -14.97838892 5.06608272 -16.5625 5.3125 C-15.9025 4.9825 -15.2425 4.6525 -14.5625 4.3125 C-14.5625 3.6525 -14.5625 2.9925 -14.5625 2.3125 C-9.57288875 0.32772595 -5.28268525 -0.02306849 0 0 Z " fill="#3185CB" transform="translate(395.5625,150.6875)"/>
<path d="M0 0 C0.33 0.99 0.66 1.98 1 3 C-0.07421875 4.75390625 -0.07421875 4.75390625 -1.6875 6.5625 C-2.20699219 7.16191406 -2.72648437 7.76132813 -3.26171875 8.37890625 C-5.0708906 10.06611146 -6.79535397 10.91856311 -9 12 C-9.33 12.66 -9.66 13.32 -10 14 C-3.07 14.495 -3.07 14.495 4 15 C3.67 15.66 3.34 16.32 3 17 C-2.94 17 -8.88 17 -15 17 C-13.73796772 11.95187087 -12.26999736 11.70980602 -8 9 C-4.99058408 6.20054333 -2.36521536 3.36109551 0 0 Z " fill="#4F8DC0" transform="translate(282,228)"/>
<path d="M0 0 C0.91058531 3.07322544 1.08886184 5.80097361 1 9 C3.97 9.33 6.94 9.66 10 10 C10 9.01 10 8.02 10 7 C10.66 7 11.32 7 12 7 C11.34 8.65 10.68 10.3 10 12 C4.72 12 -0.56 12 -6 12 C-6 10.68 -6 9.36 -6 8 C-5.34 8 -4.68 8 -4 8 C-3.8453125 7.13375 -3.8453125 7.13375 -3.6875 6.25 C-2.90207202 3.67950842 -1.69495803 2.06342716 0 0 Z " fill="#498DC5" transform="translate(309,233)"/>
<path d="M0 0 C3.23356015 1.21258505 4.00856305 2.01284458 6 5 C6.07905064 7.33199388 6.08798769 9.66832622 6 12 C0.03596489 13.83508773 -3.75182088 11.71739052 -9 9 C-5.28272326 7.86416544 -3.52948291 8.33329974 0 10 C0 7.36 0 4.72 0 2 C-0.66 1.67 -1.32 1.34 -2 1 C-1.34 0.67 -0.68 0.34 0 0 Z " fill="#2282D3" transform="translate(418,148)"/>
<path d="M0 0 C2.37686249 3.01733442 4.28322933 6.13113304 6.125 9.5 C6.90230469 10.90765625 6.90230469 10.90765625 7.6953125 12.34375 C9.72274817 16.47146335 9.72274817 16.47146335 10 19 C9.34 19.66 8.68 20.32 8 21 C7.67 18.69 7.34 16.38 7 14 C4.53199953 15.15173355 2.95216435 16.04783565 1 18 C-1.625 17.625 -1.625 17.625 -4 17 C-4 15.68 -4 14.36 -4 13 C-2.35 13 -0.7 13 1 13 C2.08416595 9.0970026 1.92020735 7.50155458 0 4 C0 2.68 0 1.36 0 0 Z " fill="#2581CE" transform="translate(407,204)"/>
<path d="M0 0 C0.66 0 1.32 0 2 0 C3.67333158 3.12147545 5.33751716 6.24773498 7 9.375 C7.47695313 10.26445312 7.95390625 11.15390625 8.4453125 12.0703125 C8.89648438 12.92109375 9.34765625 13.771875 9.8125 14.6484375 C10.23144531 15.43395996 10.65039062 16.21948242 11.08203125 17.02880859 C12 19 12 19 12 21 C10.68 21 9.36 21 8 21 C8 19.68 8 18.36 8 17 C6.35 17.33 4.7 17.66 3 18 C3.20625 16.989375 3.4125 15.97875 3.625 14.9375 C4.0471494 10.50493131 3.4359485 8.13891038 2 4 C0.35 4 -1.3 4 -3 4 C-1.625 2 -1.625 2 0 0 Z " fill="#2B82CD" transform="translate(382,211)"/>
<path d="M0 0 C2.625 -0.1875 2.625 -0.1875 5 0 C8.0662152 6.25507901 8.0662152 6.25507901 7.75 9.8125 C7 12 7 12 6 14 C6.66 14.33 7.32 14.66 8 15 C4.25 17 4.25 17 2 17 C1.67 15.68 1.34 14.36 1 13 C1.99 12.67 2.98 12.34 4 12 C4.33 9.69 4.66 7.38 5 5 C4.01 5 3.02 5 2 5 C-0.1875 4 -0.1875 4 -2 3 C-1.34 2.01 -0.68 1.02 0 0 Z " fill="#0677D9" transform="translate(379,215)"/>
<path d="M0 0 C1.06775224 1.96466413 2.06553465 3.96855359 3 6 C2.67 6.66 2.34 7.32 2 8 C0.68 7.34 -0.64 6.68 -2 6 C-2 5.34 -2 4.68 -2 4 C-3.98 4.33 -5.96 4.66 -8 5 C-8 7.64 -8 10.28 -8 13 C-11.0916909 10.47043472 -11.90931332 7.77545388 -13 4 C-4.738041 -0.59225513 -4.738041 -0.59225513 0 0 Z " fill="#4991CB" transform="translate(385,161)"/>
<path d="M0 0 C-0.66 0 -1.32 0 -2 0 C-2 0.66 -2 1.32 -2 2 C-2.7425 2.268125 -3.485 2.53625 -4.25 2.8125 C-6.87046481 3.94406435 -8.7434989 5.28817158 -11 7 C-11.66 7 -12.32 7 -13 7 C-13.433125 8.2065625 -13.433125 8.2065625 -13.875 9.4375 C-15 12 -15 12 -17 13 C-17.66 12.67 -18.32 12.34 -19 12 C-19 12.66 -19 13.32 -19 14 C-20.98 14.66 -22.96 15.32 -25 16 C-22.44138481 8.32415443 -12.07038509 3.65769534 -5.34765625 -0.06640625 C-3 -1 -3 -1 0 0 Z " fill="#5295D0" transform="translate(375,145)"/>
<path d="M0 0 C0.33 0.99 0.66 1.98 1 3 C-0.09740331 4.81757424 -1.20975861 6.62743335 -2.38671875 8.39453125 C-4.4116891 11.66488288 -6.11236509 15.05235934 -7.8125 18.5 C-8.12638672 19.13591064 -8.44027344 19.77182129 -8.76367188 20.42700195 C-9.51229728 21.94977408 -10.25661284 23.47466381 -11 25 C-11.33 25 -11.66 25 -12 25 C-12.48990279 19.93767116 -10.7106322 15.67369154 -9 11 C-8.01 11 -7.02 11 -6 11 C-6.103125 10.2575 -6.20625 9.515 -6.3125 8.75 C-6 6 -6 6 -3.5625 3.8125 C-2.716875 3.214375 -1.87125 2.61625 -1 2 C-0.67 1.34 -0.34 0.68 0 0 Z " fill="#4491CE" transform="translate(325,177)"/>
<path d="M0 0 C-1.94226733 1.94226733 -3.17812459 2.63867013 -5.625 3.75 C-11.85052007 6.78352614 -17.29958401 10.90788268 -22 16 C-22.33 14.02 -22.66 12.04 -23 10 C-19.535 9.505 -19.535 9.505 -16 9 C-16.33 7.35 -16.66 5.7 -17 4 C-16.01 4.33 -15.02 4.66 -14 5 C-13.01 4.67 -12.02 4.34 -11 4 C-10.67 3.01 -10.34 2.02 -10 1 C-6.59437148 0.22157062 -3.49234244 -0.09978121 0 0 Z " fill="#388DCE" transform="translate(379,156)"/>
<path d="M0 0 C2 2 2 2 2 5 C2.66 5.33 3.32 5.66 4 6 C1.03 8.475 1.03 8.475 -2 11 C-2 10.34 -2 9.68 -2 9 C-2.639375 8.773125 -3.27875 8.54625 -3.9375 8.3125 C-6 7 -6 7 -6.75 4.375 C-6.8325 3.59125 -6.915 2.8075 -7 2 C-6.401875 1.855625 -5.80375 1.71125 -5.1875 1.5625 C-3.43849596 1.1127561 -1.71322977 0.57107659 0 0 Z " fill="#0875D4" transform="translate(370,193)"/>
<path d="M0 0 C1.32 0.33 2.64 0.66 4 1 C4 2.32 4 3.64 4 5 C3.38125 5.103125 2.7625 5.20625 2.125 5.3125 C-0.36526484 5.87525373 -0.36526484 5.87525373 -2 9 C-1.73041853 12.38976901 -1.73041853 12.38976901 -1 16 C-0.814375 17.134375 -0.62875 18.26875 -0.4375 19.4375 C-0.293125 20.283125 -0.14875 21.12875 0 22 C-3.68696149 18.64917175 -5.67842013 15.02277126 -6 10 C-4.4852301 6.29035943 -2.41387904 3.18525637 0 0 Z " fill="#5FA1CD" transform="translate(361,174)"/>
<path d="M0 0 C0 0.99 0 1.98 0 3 C-0.99 3 -1.98 3 -3 3 C-3 4.98 -3 6.96 -3 9 C-4.3921875 8.505 -4.3921875 8.505 -5.8125 8 C-8.92029291 6.85032996 -8.92029291 6.85032996 -12 7 C-12.66 6.67 -13.32 6.34 -14 6 C-11.7967746 2.6951619 -11.17432399 2.43341089 -7.5625 1.3125 C-6.78003906 1.06113281 -5.99757813 0.80976563 -5.19140625 0.55078125 C-3 0 -3 0 0 0 Z " fill="#0A75CF" transform="translate(343,148)"/>
<path d="M0 0 C0 0.99 0 1.98 0 3 C-0.66 2.67 -1.32 2.34 -2 2 C-1.34 1.34 -0.68 0.68 0 0 Z M4 1 C5.31534494 4.65857532 4.65468309 7.08026481 3.5625 10.75 C3.27503906 11.73484375 2.98757813 12.7196875 2.69140625 13.734375 C2.34916016 14.85585937 2.34916016 14.85585937 2 16 C0.68 16 -0.64 16 -2 16 C-1.34 13.69 -0.68 11.38 0 9 C-1.32 7.68 -2.64 6.36 -4 5 C-3.34 4.34 -2.68 3.68 -2 3 C-2 3.66 -2 4.32 -2 5 C1.72614153 3.88145414 1.72614153 3.88145414 4 1 Z " fill="#0975D4" transform="translate(346,172)"/>
<path d="M0 0 C3.125 0.1875 3.125 0.1875 6.125 2.1875 C6.3125 5.3125 6.3125 5.3125 6.125 8.1875 C5.135 8.1875 4.145 8.1875 3.125 8.1875 C3.455 7.1975 3.785 6.2075 4.125 5.1875 C2.145 6.1775 0.165 7.1675 -1.875 8.1875 C-2.535 5.8775 -3.195 3.5675 -3.875 1.1875 C-2.875 0.1875 -2.875 0.1875 0 0 Z " fill="#0776D6" transform="translate(379.875,164.8125)"/>
<path d="M0 0 C8.58026727 3.53633575 14.44776181 8.5847858 21 15 C17.33815476 15 15.97194 14.080358 13 12 C12.525625 11.319375 12.05125 10.63875 11.5625 9.9375 C9.43082424 7.29422206 7.21644616 6.85771898 4 6 C4 5.34 4 4.68 4 4 C2.68 3.67 1.36 3.34 0 3 C0 2.01 0 1.02 0 0 Z " fill="#5A9ED1" transform="translate(396,125)"/>
<path d="M0 0 C-0.33 0.66 -0.66 1.32 -1 2 C-3.2941541 2.31426769 -5.55773221 2.37924576 -7.87109375 2.4609375 C-8.92490234 2.72777344 -8.92490234 2.72777344 -10 3 C-11.15892068 4.95318888 -11.15892068 4.95318888 -12 7 C-14.5 7.875 -14.5 7.875 -17 8 C-17.66 7.34 -18.32 6.68 -19 6 C-16.69 5.34 -14.38 4.68 -12 4 C-12 3.34 -12 2.68 -12 2 C-11.34 2 -10.68 2 -10 2 C-10 1.34 -10 0.68 -10 0 C-6.30458414 -0.95024979 -3.69541586 -0.95024979 0 0 Z " fill="#0F73C7" transform="translate(385,143)"/>
<path d="M0 0 C2.99801938 3.53361325 5.23912566 7.04589616 7.3125 11.1875 C7.84488281 12.23292969 8.37726563 13.27835938 8.92578125 14.35546875 C9.28027344 15.22816406 9.63476562 16.10085937 10 17 C9.67 17.66 9.34 18.32 9 19 C8.34 19 7.68 19 7 19 C6.61908203 17.96939453 6.61908203 17.96939453 6.23046875 16.91796875 C5.88628906 16.01691406 5.54210937 15.11585938 5.1875 14.1875 C4.85105469 13.29417969 4.51460938 12.40085938 4.16796875 11.48046875 C3.15994554 8.97658844 3.15994554 8.97658844 1.375 7.375 C0 6 0 6 -0.1875 2.8125 C-0.125625 1.884375 -0.06375 0.95625 0 0 Z " fill="#4D95CF" transform="translate(417,224)"/>
<path d="M0 0 C0.66 0 1.32 0 2 0 C0.65686815 3.78091617 -1.02964684 6.65651916 -3.5 9.8125 C-4.41265625 10.99779297 -4.41265625 10.99779297 -5.34375 12.20703125 C-5.8903125 12.79871094 -6.436875 13.39039063 -7 14 C-7.66 14 -8.32 14 -9 14 C-9.33 14.99 -9.66 15.98 -10 17 C-10.33 15.68 -10.66 14.36 -11 13 C-10.01 13 -9.02 13 -8 13 C-8 11.35 -8 9.7 -8 8 C-6.68 8 -5.36 8 -4 8 C-3.67 6.68 -3.34 5.36 -3 4 C-2.34 4 -1.68 4 -1 4 C-0.67 2.68 -0.34 1.36 0 0 Z " fill="#519BCF" transform="translate(277,212)"/>
<path d="M0 0 C0.66 0.33 1.32 0.66 2 1 C1.67 1.33 1.34 1.66 1 2 C3.81509993 4.2773501 3.81509993 4.2773501 7 4 C6.67 4.99 6.34 5.98 6 7 C4.02 7 2.04 7 0 7 C0 7.66 0 8.32 0 9 C-0.33 9.66 -0.66 10.32 -1 11 C-4.03590285 6.62829989 -4.03590285 6.62829989 -3.875 3.8125 C-3 2 -3 2 0 0 Z " fill="#3D95DD" transform="translate(377,215)"/>
<path d="M0 0 C0.99 0 1.98 0 3 0 C3.33 1.98 3.66 3.96 4 6 C0.26513121 6.5745952 -3.21293268 7 -7 7 C-7 6.34 -7 5.68 -7 5 C-6.030625 4.54625 -5.06125 4.0925 -4.0625 3.625 C-0.92920418 2.34213779 -0.92920418 2.34213779 0 0 Z " fill="#0577D7" transform="translate(326,132)"/>
<path d="M0 0 C7.92 0 15.84 0 24 0 C24 0.33 24 0.66 24 1 C22.90042969 1.03738281 21.80085938 1.07476562 20.66796875 1.11328125 C12.81454689 1.44236008 5.61641514 1.94059056 -1.8984375 4.4765625 C-4 5 -4 5 -7 4 C-6.34 4 -5.68 4 -5 4 C-5 3.34 -5 2.68 -5 2 C-3.35 2 -1.7 2 0 2 C0 1.34 0 0.68 0 0 Z " fill="#5495CE" transform="translate(347,129)"/>
<path d="M0 0 C1.921875 0.6484375 1.921875 0.6484375 4 2 C5.15407033 5.62552282 5.47176736 9.21433273 6 13 C1.71 13 -2.58 13 -7 13 C-7 12.67 -7 12.34 -7 12 C-1.555 11.505 -1.555 11.505 4 11 C3.34 9.9275 2.68 8.855 2 7.75 C0.11704193 4.69019314 0 3.8664136 0 0 Z " fill="#4B94CD" transform="translate(402,220)"/>
<path d="M0 0 C0.97591583 3.38317487 0.85856655 5.5657338 0 9 C-0.66 9 -1.32 9 -2 9 C-1.67 10.65 -1.34 12.3 -1 14 C-2.98 14.33 -4.96 14.66 -7 15 C-5.63408831 11.45756548 -4.09068516 8.07372071 -2.375 4.6875 C-1.70597656 3.36298828 -1.70597656 3.36298828 -1.0234375 2.01171875 C-0.68570312 1.34785156 -0.34796875 0.68398437 0 0 Z " fill="#4A94D0" transform="translate(327,199)"/>
<path d="M0 0 C1.98 0 3.96 0 6 0 C5.484375 0.5775 4.96875 1.155 4.4375 1.75 C2.73494807 3.87827523 2.73494807 3.87827523 3.3125 6.25 C3.6528125 7.11625 3.6528125 7.11625 4 8 C1.69 7.67 -0.62 7.34 -3 7 C-2.67 5.35 -2.34 3.7 -2 2 C-1.34 2 -0.68 2 0 2 C0 1.34 0 0.68 0 0 Z " fill="#0776D8" transform="translate(337,123)"/>
<path d="M0 0 C0.33 0.66 0.66 1.32 1 2 C0.67 2.66 0.34 3.32 0 4 C0.66 4 1.32 4 2 4 C2.33 3.01 2.66 2.02 3 1 C3 2.32 3 3.64 3 5 C2.01 5.33 1.02 5.66 0 6 C-2.88535357 8.46103687 -4.45712148 10.19985035 -5 14 C-6.32 14.33 -7.64 14.66 -9 15 C-7.38325319 11.57053707 -5.42402323 8.43736948 -3.375 5.25 C-2.74335938 4.26515625 -2.11171875 3.2803125 -1.4609375 2.265625 C-0.97882813 1.51796875 -0.49671875 0.7703125 0 0 Z " fill="#5BA2D7" transform="translate(292,213)"/>
<path d="M0 0 C0.66 0 1.32 0 2 0 C1.56489218 4.931222 -0.54881403 7.54881403 -4 11 C-7.3125 12.375 -7.3125 12.375 -10 13 C-9.61328125 12.56429687 -9.2265625 12.12859375 -8.828125 11.6796875 C-6.26113052 8.7441641 -3.8315556 5.86618105 -1.75 2.5625 C-0.88375 1.2940625 -0.88375 1.2940625 0 0 Z " fill="#5295CD" transform="translate(263,211)"/>
<path d="M0 0 C0.66 0 1.32 0 2 0 C0.62859834 3.67694648 -1.03695801 6.95318589 -3.0625 10.3125 C-3.58972656 11.19550781 -4.11695313 12.07851562 -4.66015625 12.98828125 C-5.10230469 13.65214844 -5.54445313 14.31601563 -6 15 C-6.33 15 -6.66 15 -7 15 C-7.125 9.25 -7.125 9.25 -6 7 C-5.34 7 -4.68 7 -4 7 C-4 6.01 -4 5.02 -4 4 C-3.34 4 -2.68 4 -2 4 C-1.34 2.68 -0.68 1.36 0 0 Z " fill="#4B93CC" transform="translate(333,162)"/>
<path d="M0 0 C1.98 0 3.96 0 6 0 C6 0.33 6 0.66 6 1 C11.94 1.33 17.88 1.66 24 2 C24 2.33 24 2.66 24 3 C15.75 3 7.5 3 -1 3 C-0.67 2.01 -0.34 1.02 0 0 Z " fill="#226FB0" transform="translate(224,241)"/>
<path d="M0 0 C0.33 0.99 0.66 1.98 1 3 C-0.07421875 4.75390625 -0.07421875 4.75390625 -1.6875 6.5625 C-2.20699219 7.16191406 -2.72648437 7.76132813 -3.26171875 8.37890625 C-5.0708906 10.06611146 -6.79535397 10.91856311 -9 12 C-9.33 12.66 -9.66 13.32 -10 14 C-11.32 13.67 -12.64 13.34 -14 13 C-12.6696875 12.1646875 -12.6696875 12.1646875 -11.3125 11.3125 C-6.74412605 8.26332588 -3.15634591 4.48533366 0 0 Z " fill="#609CCF" transform="translate(282,228)"/>
<path d="M0 0 C0.33 1.32 0.66 2.64 1 4 C0.34 4 -0.32 4 -1 4 C-0.896875 4.86625 -0.79375 5.7325 -0.6875 6.625 C-1.11458943 11.23756587 -2.85042342 12.69294459 -6 16 C-6.66 15.67 -7.32 15.34 -8 15 C-6.85657478 12.68628057 -5.71038936 10.37400323 -4.5625 8.0625 C-4.23701172 7.40314453 -3.91152344 6.74378906 -3.57617188 6.06445312 C-1.11328125 1.11328125 -1.11328125 1.11328125 0 0 Z " fill="#5196CD" transform="translate(318,217)"/>
<path d="M0 0 C0.99 0.33 1.98 0.66 3 1 C4.1875 4.0625 4.1875 4.0625 5 7 C3.68 6.01 2.36 5.02 1 4 C0.66226562 4.5053125 0.32453125 5.010625 -0.0234375 5.53125 C-0.46945312 6.1809375 -0.91546875 6.830625 -1.375 7.5 C-1.81585938 8.1496875 -2.25671875 8.799375 -2.7109375 9.46875 C-3.13632812 9.9740625 -3.56171875 10.479375 -4 11 C-4.66 11 -5.32 11 -6 11 C-5.39305845 7.84669446 -4.3583335 5.81111133 -2.4375 3.25 C-1.98246094 2.63640625 -1.52742188 2.0228125 -1.05859375 1.390625 C-0.70925781 0.93171875 -0.35992187 0.4728125 0 0 Z " fill="#5A9FD1" transform="translate(388,197)"/>
<path d="M0 0 C-0.99 0.495 -0.99 0.495 -2 1 C-2 1.66 -2 2.32 -2 3 C-3.4117783 3.53394179 -4.82970244 4.05165104 -6.25 4.5625 C-7.03890625 4.85253906 -7.8278125 5.14257812 -8.640625 5.44140625 C-11.19103452 6.04522837 -12.55322229 5.8473932 -15 5 C-9.77146992 0.49765466 -6.81259709 -0.15483175 0 0 Z " fill="#1073C7" transform="translate(346,145)"/>
<path d="M0 0 C-3.39673303 1.85276347 -6.86904604 2.99049196 -10.5625 4.125 C-11.69816406 4.47820312 -12.83382813 4.83140625 -14.00390625 5.1953125 C-17 6 -17 6 -20 6 C-20 5.34 -20 4.68 -20 4 C-13.16088115 1.44672896 -7.33813334 -0.5644718 0 0 Z " fill="#5A98D0" transform="translate(356,221)"/>
<path d="M0 0 C1.98 0.66 3.96 1.32 6 2 C5.01 2.33 4.02 2.66 3 3 C2.87625 4.134375 2.7525 5.26875 2.625 6.4375 C2.41875 7.613125 2.2125 8.78875 2 10 C1.01 10.495 1.01 10.495 0 11 C-1.32 9.35 -2.64 7.7 -4 6 C-3.01 6 -2.02 6 -1 6 C-1.33 5.01 -1.66 4.02 -2 3 C-1.34 2.34 -0.68 1.68 0 1 C0 0.67 0 0.34 0 0 Z " fill="#308BDA" transform="translate(388,121)"/>
<path d="M0 0 C0.33 0 0.66 0 1 0 C0.88637738 1.4800841 0.75877092 2.95910074 0.625 4.4375 C0.55539062 5.26121094 0.48578125 6.08492187 0.4140625 6.93359375 C0.27742188 7.61550781 0.14078125 8.29742187 0 9 C-0.99 9.495 -0.99 9.495 -2 10 C-2.33 10.99 -2.66 11.98 -3 13 C-3.99 13.33 -4.98 13.66 -6 14 C-2.99633316 4.22210581 -2.99633316 4.22210581 0 0 Z " fill="#5698CE" transform="translate(339,176)"/>
<path d="M0 0 C0 0.99 0 1.98 0 3 C-2.64 3.66 -5.28 4.32 -8 5 C-8 4.34 -8 3.68 -8 3 C-9.32 2.34 -10.64 1.68 -12 1 C-7.9472484 0.01751476 -4.16138263 -0.08159574 0 0 Z " fill="#81ACCF" transform="translate(370,136)"/>
<path d="M0 0 C2 1.8125 2 1.8125 4 4 C4 4.99 4 5.98 4 7 C3.34 7.66 2.68 8.32 2 9 C1.67 9.66 1.34 10.32 1 11 C0 10 0 10 -0.0625 7.4375 C-0.041875 6.633125 -0.02125 5.82875 0 5 C-0.66 5 -1.32 5 -2 5 C-2 3.68 -2 2.36 -2 1 C-1.34 0.67 -0.68 0.34 0 0 Z " fill="#0478DA" transform="translate(297,212)"/>
<path d="M0 0 C0.66 0.33 1.32 0.66 2 1 C1.59007812 1.66386719 1.18015625 2.32773438 0.7578125 3.01171875 C-0.05042969 4.33623047 -0.05042969 4.33623047 -0.875 5.6875 C-1.40867187 6.55761719 -1.94234375 7.42773438 -2.4921875 8.32421875 C-3.90640814 10.83391082 -4.99894789 13.30299069 -6 16 C-6.33 16 -6.66 16 -7 16 C-6.39710926 9.87061083 -5.46826431 7.20239646 -2 2 C-1.34 2 -0.68 2 0 2 C0 1.34 0 0.68 0 0 Z " fill="#5C9BCF" transform="translate(355,172)"/>
<path d="M0 0 C0 3.72295567 -1.3746498 4.80112485 -3.75390625 7.50390625 C-5.17673476 9.21219252 -6.1349787 10.95540419 -7 13 C-7.33 13 -7.66 13 -8 13 C-8 11.35 -8 9.7 -8 8 C-7.34 7.67 -6.68 7.34 -6 7 C-5.71125 6.01 -5.4225 5.02 -5.125 4 C-4.75375 3.01 -4.3825 2.02 -4 1 C-1.875 0.125 -1.875 0.125 0 0 Z " fill="#5798CC" transform="translate(311,155)"/>
<path d="M0 0 C0.66 0.33 1.32 0.66 2 1 C1.67 1.33 1.34 1.66 1 2 C2.62463842 2.05395478 4.24978541 2.09277195 5.875 2.125 C6.77992188 2.14820313 7.68484375 2.17140625 8.6171875 2.1953125 C11.18806994 2.24324836 11.18806994 2.24324836 13 0 C13.99 0.33 14.98 0.66 16 1 C15.01 2.485 15.01 2.485 14 4 C11.2114711 4.22107787 8.65346819 4.28107535 5.875 4.1875 C5.12089844 4.17396484 4.36679687 4.16042969 3.58984375 4.14648438 C1.72625873 4.11109985 -0.13695978 4.05729167 -2 4 C-1.34 2.68 -0.68 1.36 0 0 Z " fill="#0F71C5" transform="translate(273,239)"/>
<path d="M0 0 C0.99 0 1.98 0 3 0 C1.40956621 5.08938811 -1.7446951 8.87456643 -5 13 C-6 10 -6 10 -5.22265625 8.17578125 C-4.1484375 6.45052083 -3.07421875 4.72526042 -2 3 C-1.34 3 -0.68 3 0 3 C0 2.01 0 1.02 0 0 Z " fill="#5A9FD0" transform="translate(300,221)"/>
<path d="M0 0 C0.66 0.33 1.32 0.66 2 1 C1.54177532 4.46941546 1.10868317 7.67395049 0 11 C-4 4.25 -4 4.25 -4 2 C-2.125 0.9375 -2.125 0.9375 0 0 Z " fill="#5DA0CE" transform="translate(376,163)"/>
<path d="M0 0 C-1.96099207 1.96099207 -3.41110058 2.80989009 -5.875 4 C-6.55304688 4.33 -7.23109375 4.66 -7.9296875 5 C-8.61289062 5.33 -9.29609375 5.66 -10 6 C-11.33425541 6.66481931 -12.66786355 7.33094492 -14 8 C-14 7.01 -14 6.02 -14 5 C-13.01 4.67 -12.02 4.34 -11 4 C-10.67 3.01 -10.34 2.02 -10 1 C-6.59437148 0.22157062 -3.49234244 -0.09978121 0 0 Z " fill="#5FA0D2" transform="translate(379,156)"/>
<path d="M0 0 C2.31 0.33 4.62 0.66 7 1 C3.88983545 4.28788824 0.98381075 6.83735988 -3 9 C-3 7.68 -3 6.36 -3 5 C-1.68 5 -0.36 5 1 5 C0.67 3.35 0.34 1.7 0 0 Z " fill="#4C95CD" transform="translate(329,226)"/>
<path d="M0 0 C1.2375 0.1546875 1.2375 0.1546875 2.5 0.3125 C4.5 3.3125 4.5 3.3125 4.125 5.5 C3.91875 6.098125 3.7125 6.69625 3.5 7.3125 C3.066875 6.8175 2.63375 6.3225 2.1875 5.8125 C0.50259517 3.98031808 0.50259517 3.98031808 -2.5 4.3125 C-3.16 3.6525 -3.82 2.9925 -4.5 2.3125 C-2.5 0.3125 -2.5 0.3125 0 0 Z " fill="#0B73CD" transform="translate(381.5,214.6875)"/>
<path d="M0 0 C1.20400875 4.81603501 0.46731141 5.85844156 -2 10 C-3.6875 11.875 -3.6875 11.875 -5 13 C-5.66 12.67 -6.32 12.34 -7 12 C-4.69 8.04 -2.38 4.08 0 0 Z " fill="#5B9DD2" transform="translate(297,152)"/>
<path d="M0 0 C1.32 0 2.64 0 4 0 C3.875 1.75 3.875 1.75 3 4 C-0.0625 6.25 -0.0625 6.25 -3 8 C-3 6.68 -3 5.36 -3 4 C-2.34 4 -1.68 4 -1 4 C-0.67 2.68 -0.34 1.36 0 0 Z " fill="#4A92CE" transform="translate(316,145)"/>
<path d="M0 0 C1.32 0 2.64 0 4 0 C4 0.66 4 1.32 4 2 C4.66 2.33 5.32 2.66 6 3 C6 3.66 6 4.32 6 5 C6.33 5.99 6.66 6.98 7 8 C4.03 7.505 4.03 7.505 1 7 C1.33 5.35 1.66 3.7 2 2 C1.01 1.67 0.02 1.34 -1 1 C-0.67 0.67 -0.34 0.34 0 0 Z " fill="#0875D7" transform="translate(381,124)"/>
<path d="M0 0 C2.2941487 2.12225283 3.85401234 4.17432883 5.3125 6.9375 C5.86357422 7.94103516 5.86357422 7.94103516 6.42578125 8.96484375 C7 11 7 11 6.10546875 13.25390625 C5.74066406 13.83011719 5.37585938 14.40632812 5 15 C4.731875 14.113125 4.46375 13.22625 4.1875 12.3125 C3.135061 9.01430763 3.135061 9.01430763 1.375 6.375 C0 4 0 4 0 0 Z " fill="#448EC7" transform="translate(398,188)"/>
<path d="M0 0 C0.99 0.33 1.98 0.66 3 1 C4 4 4 4 2.78515625 6.69921875 C2.21667969 7.68535156 1.64820313 8.67148438 1.0625 9.6875 C0.49660156 10.68136719 -0.06929688 11.67523438 -0.65234375 12.69921875 C-1.31943359 13.83810547 -1.31943359 13.83810547 -2 15 C-3.03864166 11.88407501 -3.09036928 10.9737344 -2 8 C-1.34 7.67 -0.68 7.34 0 7 C0 4.69 0 2.38 0 0 Z " fill="#5198CF" transform="translate(293,178)"/>
<path d="M0 0 C0.66 0.33 1.32 0.66 2 1 C1.51789063 1.38671875 1.03578125 1.7734375 0.5390625 2.171875 C-0.09257812 2.69265625 -0.72421875 3.2134375 -1.375 3.75 C-2.00148438 4.26046875 -2.62796875 4.7709375 -3.2734375 5.296875 C-5.08701533 7.08583413 -5.88761878 8.73687959 -7 11 C-9.125 11.75 -9.125 11.75 -11 12 C-8.47295673 6.78797325 -4.38226641 3.6119868 0 0 Z " fill="#66A0D0" transform="translate(316,132)"/>
<path d="M0 0 C2.64 0 5.28 0 8 0 C8.33 0.66 8.66 1.32 9 2 C7.75 3.5625 7.75 3.5625 6 5 C3.8125 4.6875 3.8125 4.6875 2 4 C2 3.01 2 2.02 2 1 C1.34 0.67 0.68 0.34 0 0 Z " fill="#388ECC" transform="translate(354,138)"/>
<path d="M0 0 C1.31223496 3.93670488 0.24296256 6.12488144 -1 10 C-1.66 10 -2.32 10 -3 10 C-3.33 11.32 -3.66 12.64 -4 14 C-4.66 14 -5.32 14 -6 14 C-4.50829734 9.0276578 -2.39542583 4.58154261 0 0 Z " fill="#4E94CD" transform="translate(309,181)"/>
<path d="M0 0 C0.99 0.33 1.98 0.66 3 1 C3 1.99 3 2.98 3 4 C1.68 4.33 0.36 4.66 -1 5 C-1.33 6.32 -1.66 7.64 -2 9 C-2.66 9 -3.32 9 -4 9 C-3.38461538 3.46153846 -3.38461538 3.46153846 -1.4375 1.125 C-0.963125 0.75375 -0.48875 0.3825 0 0 Z " fill="#0775D4" transform="translate(362,178)"/>
<path d="M0 0 C3.61938095 2.64116988 5.98706523 4.97413046 8 9 C8 9.66 8 10.32 8 11 C4.22953502 9.74317834 3.2164873 8.25084804 1 5 C0.25 2.1875 0.25 2.1875 0 0 Z " fill="#5B9BCE" transform="translate(417,142)"/>
<path d="M0 0 C0.33 1.32 0.66 2.64 1 4 C1.99 4 2.98 4 4 4 C4.33 6.64 4.66 9.28 5 12 C2.37599478 9.62590004 0.55431791 7.18635171 -1 4 C-0.6875 1.6875 -0.6875 1.6875 0 0 Z " fill="#4A93CF" transform="translate(380,229)"/>
<path d="M0 0 C-2.16099373 2.16099373 -3.5210418 2.71563716 -6.375 3.6875 C-7.14585937 3.95949219 -7.91671875 4.23148438 -8.7109375 4.51171875 C-11.20055308 5.04278009 -12.61553018 4.81115526 -15 4 C-5.77448747 -0.59225513 -5.77448747 -0.59225513 0 0 Z " fill="#599ACE" transform="translate(371,216)"/>
<path d="M0 0 C1 4 1 4 -0.21484375 6.359375 C-0.78332031 7.14828125 -1.35179687 7.9371875 -1.9375 8.75 C-2.50339844 9.54921875 -3.06929688 10.3484375 -3.65234375 11.171875 C-4.09707031 11.77515625 -4.54179687 12.3784375 -5 13 C-5.66 12.67 -6.32 12.34 -7 12 C-4.69 8.04 -2.38 4.08 0 0 Z " fill="#5A9ECF" transform="translate(272,198)"/>
<path d="M0 0 C0.6875 1.75 0.6875 1.75 1 4 C-0.7573799 7.07541482 -1.57945994 7.85981998 -5 9 C-4.5206753 4.68607774 -3.2542015 2.83430453 0 0 Z " fill="#3181C5" transform="translate(322,161)"/>
<path d="M0 0 C-0.33 0.99 -0.66 1.98 -1 3 C-2.32303717 3.3721042 -3.65737935 3.70630173 -5 4 C-5.33 4.66 -5.66 5.32 -6 6 C-7.98 6 -9.96 6 -12 6 C-8.82952065 2.30110743 -4.90226152 0 0 0 Z " fill="#63A2D3" transform="translate(338,121)"/>
<path d="M0 0 C0.33 0.66 0.66 1.32 1 2 C1.99 2 2.98 2 4 2 C4.33 2.99 4.66 3.98 5 5 C4.34 5 3.68 5 3 5 C2.67 5.66 2.34 6.32 2 7 C1.01 6.67 0.02 6.34 -1 6 C-1.33 4.35 -1.66 2.7 -2 1 C-1.34 0.67 -0.68 0.34 0 0 Z " fill="#0677D8" transform="translate(329,156)"/>
<path d="M0 0 C2.48020497 0.11341491 4.95844969 0.24014686 7.4375 0.375 C8.14455078 0.4059375 8.85160156 0.436875 9.58007812 0.46875 C11.39239188 0.57280629 13.19817988 0.77919892 15 1 C15.33 1.66 15.66 2.32 16 3 C11.89517207 4.13314263 9.24049263 3.78328091 5.1875 2.5625 C3.72376953 2.13130859 3.72376953 2.13130859 2.23046875 1.69140625 C1.49441406 1.46324219 0.75835937 1.23507813 0 1 C0 0.67 0 0.34 0 0 Z " fill="#5399D4" transform="translate(371,130)"/>
<path d="M0 0 C0.66 0.99 1.32 1.98 2 3 C0.02 5.97 0.02 5.97 -2 9 C-3.32 7.68 -4.64 6.36 -6 5 C-5.195625 4.731875 -4.39125 4.46375 -3.5625 4.1875 C-2.716875 3.795625 -1.87125 3.40375 -1 3 C-0.67 2.01 -0.34 1.02 0 0 Z " fill="#0976D8" transform="translate(387,194)"/>
<path d="M0 0 C0.99 1.32 1.98 2.64 3 4 C2.67 4.66 2.34 5.32 2 6 C-0.32156597 6.40729228 -2.6568787 6.74438677 -5 7 C-4.34 6.67 -3.68 6.34 -3 6 C-2.29788106 4.34795544 -1.63028587 2.68076231 -1 1 C-0.67 0.67 -0.34 0.34 0 0 Z " fill="#0875D9" transform="translate(283,186)"/>
<path d="M0 0 C0.33 0.66 0.66 1.32 1 2 C-2.14754098 8.64480874 -2.14754098 8.64480874 -5.25 9.9375 C-5.8275 9.958125 -6.405 9.97875 -7 10 C-4.93992341 6.39486597 -2.6486859 3.19668988 0 0 Z " fill="#5D9FD0" transform="translate(349,161)"/>
<path d="M0 0 C0.33 0.66 0.66 1.32 1 2 C-6.42857143 4.42857143 -6.42857143 4.42857143 -10 3 C-6.48812804 0.59185923 -4.27343092 -0.36629408 0 0 Z " fill="#3587CD" transform="translate(249,231)"/>
<path d="M0 0 C0.66 0 1.32 0 2 0 C5 4.38461538 5 4.38461538 5 7 C4.01 6.67 3.02 6.34 2 6 C2 5.34 2 4.68 2 4 C0.35 4 -1.3 4 -3 4 C-1.625 2 -1.625 2 0 0 Z " fill="#6EA7D1" transform="translate(382,211)"/>
<path d="M0 0 C-1.45255699 3.82946843 -3.42895561 5.12050295 -7 7 C-7 4 -7 4 -6 2 C-3.85118612 0.75230162 -2.50320403 0 0 0 Z " fill="#257ECC" transform="translate(348,169)"/>
<path d="M0 0 C0.66 0 1.32 0 2 0 C2.99 2.64 3.98 5.28 5 8 C4.01 8.33 3.02 8.66 2 9 C0.14223235 5.86501708 -0.20140476 3.62528568 0 0 Z " fill="#3985C6" transform="translate(422,234)"/>
<path d="M0 0 C-0.375 2.4375 -0.375 2.4375 -1 5 C-1.99 5.495 -1.99 5.495 -3 6 C-3.33 5.01 -3.66 4.02 -4 3 C-4.66 2.67 -5.32 2.34 -6 2 C-6 1.34 -6 0.68 -6 0 C-3 -1 -3 -1 0 0 Z " fill="#0F73CA" transform="translate(326,174)"/>
<path d="M0 0 C0.99 0.33 1.98 0.66 3 1 C2.67 1.99 2.34 2.98 2 4 C-1.63 3.67 -5.26 3.34 -9 3 C-9 2.67 -9 2.34 -9 2 C-6.36 2 -3.72 2 -1 2 C-0.67 1.34 -0.34 0.68 0 0 Z " fill="#1072C6" transform="translate(380,127)"/>
<path d="M0 0 C5.61 0.33 11.22 0.66 17 1 C17 1.33 17 1.66 17 2 C9.08 2.495 9.08 2.495 1 3 C0.67 2.01 0.34 1.02 0 0 Z " fill="#1B77CA" transform="translate(385,241)"/>
<path d="M0 0 C1.32 0 2.64 0 4 0 C2.55746343 3.36591866 0.66735273 5.51047079 -2 8 C-1.34 5.36 -0.68 2.72 0 0 Z " fill="#5E9ED2" transform="translate(290,234)"/>
<path d="M0 0 C0.66 0 1.32 0 2 0 C2.33 1.65 2.66 3.3 3 5 C1.02 5.99 1.02 5.99 -1 7 C-0.67 4.69 -0.34 2.38 0 0 Z " fill="#4290D7" transform="translate(263,226)"/>
<path d="M0 0 C4.76058041 5.52841596 4.76058041 5.52841596 5 9 C4.34 9.66 3.68 10.32 3 11 C2.67 8.69 2.34 6.38 2 4 C1.34 4 0.68 4 0 4 C0 2.68 0 1.36 0 0 Z " fill="#549AD1" transform="translate(412,214)"/>
<path d="M0 0 C2.475 0.495 2.475 0.495 5 1 C3.92598892 3.91517292 3.22189824 5.77810176 1 8 C0.67 5.36 0.34 2.72 0 0 Z " fill="#569AD1" transform="translate(308,202)"/>
<path d="M0 0 C0.5534764 2.07553648 1 3.84365964 1 6 C0.34 6 -0.32 6 -1 6 C-1.33 6.99 -1.66 7.98 -2 9 C-2.66 9 -3.32 9 -4 9 C-2.94124926 5.59687262 -1.99097846 2.98646769 0 0 Z " fill="#6FA9D7" transform="translate(302,195)"/>
<path d="M0 0 C1.25541557 3.76624671 0.37061958 5.37188934 -1 9 C-2.32 9 -3.64 9 -5 9 C-5 8.34 -5 7.68 -5 7 C-4.01 6.34 -3.02 5.68 -2 5 C-0.79549696 2.44816596 -0.79549696 2.44816596 0 0 Z " fill="#5EA3D6" transform="translate(380,189)"/>
<path d="M0 0 C2.89932357 2.39509338 3.50168276 4.31245243 4 8 C3.01 8 2.02 8 1 8 C0.67 5.36 0.34 2.72 0 0 Z " fill="#2579C2" transform="translate(371,190)"/>
<path d="M0 0 C0.99 0.33 1.98 0.66 3 1 C4.1875 3.5625 4.1875 3.5625 5 6 C2.5625 5.625 2.5625 5.625 0 5 C-0.33 4.34 -0.66 3.68 -1 3 C-0.67 2.01 -0.34 1.02 0 0 Z " fill="#257EC7" transform="translate(386,168)"/>
<path d="M0 0 C1.62490954 -0.02698189 3.24994633 -0.04638757 4.875 -0.0625 C5.77992188 -0.07410156 6.68484375 -0.08570313 7.6171875 -0.09765625 C10 0 10 0 12 1 C12 1.66 12 2.32 12 3 C6.06 2.01 6.06 2.01 0 1 C0 0.67 0 0.34 0 0 Z " fill="#5A9AD6" transform="translate(397,153)"/>
<path d="M0 0 C0.66 0.33 1.32 0.66 2 1 C0.02 3.31 -1.96 5.62 -4 8 C-4.33 6.68 -4.66 5.36 -5 4 C-3.35 2.68 -1.7 1.36 0 0 Z " fill="#0D72C6" transform="translate(303,148)"/>
<path d="M0 0 C0.66 0 1.32 0 2 0 C1.67 2.64 1.34 5.28 1 8 C-0.5 6.625 -0.5 6.625 -2 5 C-2 4.34 -2 3.68 -2 3 C-1.34 3 -0.68 3 0 3 C0 2.01 0 1.02 0 0 Z " fill="#257EC9" transform="translate(379,223)"/>
<path d="M0 0 C2 2 2 2 2.125 5.125 C2.08375 6.07375 2.0425 7.0225 2 8 C1.34 8 0.68 8 0 8 C0 7.34 0 6.68 0 6 C-0.66 5.67 -1.32 5.34 -2 5 C-1.34 3.35 -0.68 1.7 0 0 Z " fill="#2580CC" transform="translate(396,184)"/>
<path d="M0 0 C0.66 0 1.32 0 2 0 C1.125 4.75 1.125 4.75 0 7 C-0.99 6.67 -1.98 6.34 -3 6 C-2.01 4.02 -1.02 2.04 0 0 Z " fill="#3A86CA" transform="translate(289,167)"/>
<path d="M0 0 C0.66 0 1.32 0 2 0 C2 1.65 2 3.3 2 5 C0.35 5.33 -1.3 5.66 -3 6 C-1.125 1.125 -1.125 1.125 0 0 Z " fill="#0E72C4" transform="translate(352,159)"/>
<path d="M0 0 C-0.33 0.66 -0.66 1.32 -1 2 C-3.97 1.67 -6.94 1.34 -10 1 C-10 0.67 -10 0.34 -10 0 C-6.30458414 -0.95024979 -3.69541586 -0.95024979 0 0 Z " fill="#3F8EC8" transform="translate(385,143)"/>
<path d="M0 0 C0 3 0 3 -1.2421875 4.60546875 C-1.78101563 5.12753906 -2.31984375 5.64960938 -2.875 6.1875 C-3.40867187 6.71730469 -3.94234375 7.24710938 -4.4921875 7.79296875 C-6 9 -6 9 -8 9 C-6.90101298 5.70303895 -6.05402613 4.95329411 -3.4375 2.8125 C-2.79683594 2.28269531 -2.15617187 1.75289062 -1.49609375 1.20703125 C-0.75552734 0.60955078 -0.75552734 0.60955078 0 0 Z " fill="#0F72C6" transform="translate(318,132)"/>
<path d="M0 0 C0.99 1.32 1.98 2.64 3 4 C2.401875 4.28875 1.80375 4.5775 1.1875 4.875 C-1.19327792 6.04742026 -1.19327792 6.04742026 -4 8 C-2.66666667 5.33333333 -1.33333333 2.66666667 0 0 Z " fill="#1074CA" transform="translate(284,227)"/>
<path d="M0 0 C0.33 1.32 0.66 2.64 1 4 C-1.375 5.5625 -1.375 5.5625 -4 7 C-4.66 6.67 -5.32 6.34 -6 6 C-4.02 4.02 -2.04 2.04 0 0 Z " fill="#6AAAD7" transform="translate(259,217)"/>
<path d="M0 0 C0.98120464 3.05263664 0.98120464 4.94736336 0 8 C-1.32 8.33 -2.64 8.66 -4 9 C-2.80100302 5.9168649 -1.52299523 2.93720508 0 0 Z " fill="#619CD2" transform="translate(297,204)"/>
<path d="M0 0 C0.99 0.33 1.98 0.66 3 1 C1.92598892 3.91517292 1.22189824 5.77810176 -1 8 C-0.67 5.36 -0.34 2.72 0 0 Z " fill="#5197CE" transform="translate(287,193)"/>
<path d="M0 0 C-0.66 0 -1.32 0 -2 0 C-2 0.66 -2 1.32 -2 2 C-3.65 2.66 -5.3 3.32 -7 4 C-7.66 3.34 -8.32 2.68 -9 2 C-3.375 -1.125 -3.375 -1.125 0 0 Z " fill="#6FAED9" transform="translate(375,145)"/>
<path d="M0 0 C0.33 1.32 0.66 2.64 1 4 C-0.65 5.32 -2.3 6.64 -4 8 C-4.66 7.67 -5.32 7.34 -6 7 C-4.02 4.69 -2.04 2.38 0 0 Z " fill="#5B9ACF" transform="translate(304,144)"/>
<path d="M0 0 C-0.33 0.99 -0.66 1.98 -1 3 C-1.99 3 -2.98 3 -4 3 C-4 3.66 -4 4.32 -4 5 C-5.32 4.67 -6.64 4.34 -8 4 C-2.25 0 -2.25 0 0 0 Z " fill="#5096CE" transform="translate(326,127)"/>
<path d="M0 0 C2.72426311 2.35277269 3.8141763 4.62496331 5 8 C4.01 8 3.02 8 2 8 C0.23537317 4.91190305 0 3.76687864 0 0 Z " fill="#438BC9" transform="translate(386,218)"/>
<path d="M0 0 C0.33 0.66 0.66 1.32 1 2 C2.65 2 4.3 2 6 2 C3.64046906 4.35953094 2.22104383 4.49141413 -1 5 C-0.67 3.35 -0.34 1.7 0 0 Z " fill="#1375C8" transform="translate(333,213)"/>
<path d="M0 0 C0.66 0 1.32 0 2 0 C3.06775224 1.96466413 4.06553465 3.96855359 5 6 C4.67 6.66 4.34 7.32 4 8 C0 3.375 0 3.375 0 0 Z " fill="#5C9ECE" transform="translate(391,176)"/>
<path d="M0 0 C2 2 2 2 2.125 4.625 C2.08375 5.40875 2.0425 6.1925 2 7 C-1.875 5.25 -1.875 5.25 -3 3 C-2.34 3 -1.68 3 -1 3 C-0.67 2.01 -0.34 1.02 0 0 Z " fill="#6EA1CD" transform="translate(430,163)"/>
<path d="M0 0 C0.33 0.66 0.66 1.32 1 2 C0 5 0 5 -3.0625 6.6875 C-4.031875 7.120625 -5.00125 7.55375 -6 8 C-4.55746343 4.63408134 -2.66735273 2.48952921 0 0 Z " fill="#65A4D4" transform="translate(326,155)"/>
<path d="M0 0 C1.32 0.66 2.64 1.32 4 2 C1.03312999 3.64826111 -1.65626525 4.44271087 -5 5 C-3.35 3.35 -1.7 1.7 0 0 Z " fill="#4894CA" transform="translate(336,146)"/>
</svg>
